HIERARCHY
ROOT hip
{
	OFFSET 0.000000 0.000000 0.000000
	CHANNELS 6 Xposition Yposition Zposition Xrotation Zrotation Yrotation 
	JOINT abdomen
	{
		OFFSET 0.000000 3.422050 0.000000
		CHANNELS 3 Xrotation Zrotation Yrotation 
		JOINT chest
		{
			OFFSET 0.000000 8.486693 -0.684411
			CHANNELS 3 Xrotation Zrotation Yrotation 
			JOINT neck
			{
				OFFSET 0.000000 10.266162 -0.273764
				CHANNELS 3 Xrotation Zrotation Yrotation 
				JOINT head
				{
					OFFSET 0.000000 3.148285 0.000000
					CHANNELS 3 Xrotation Zrotation Yrotation 
					End Site
					{
						OFFSET 0.000000 3.148289 0.000000
					}
				}
			}
			JOINT lCollar
			{
				OFFSET 3.422053 6.707223 -0.821293
				CHANNELS 3 Yrotation Zrotation Xrotation 
				JOINT lShldr
				{
					OFFSET 3.285171 0.000000 0.000000
					CHANNELS 3 Zrotation Yrotation Xrotation 
					JOINT lForeArm
					{
						OFFSET 10.129278 0.000000 0.000000
						CHANNELS 3 Yrotation Zrotation Xrotation 
						JOINT lHand
						{
							OFFSET 8.486692 0.000000 0.000000
							CHANNELS 3 Zrotation Yrotation Xrotation 
							End Site
							{
								OFFSET 4.106464 0.000000 0.000000
							}
						}
					}
				}
			}
			JOINT rCollar
			{
				OFFSET -3.558935 6.707223 -0.821293
				CHANNELS 3 Yrotation Zrotation Xrotation 
				JOINT rShldr
				{
					OFFSET -3.148289 0.000000 0.000000
					CHANNELS 3 Zrotation Yrotation Xrotation 
					JOINT rForeArm
					{
						OFFSET -10.266159 0.000000 0.000000
						CHANNELS 3 Yrotation Zrotation Xrotation 
						JOINT rHand
						{
							OFFSET -8.349810 0.000000 0.000000
							CHANNELS 3 Zrotation Yrotation Xrotation 
							End Site
							{
								OFFSET -4.106464 0.000000 0.000000
							}
						}
					}
				}
			}
		}
	}
	JOINT lThigh
	{
		OFFSET 5.338403 -1.642589 1.368821
		CHANNELS 3 Xrotation Zrotation Yrotation 
		JOINT lShin
		{
			OFFSET -2.053232 -20.121670 0.000000
			CHANNELS 3 Xrotation Zrotation Yrotation 
			JOINT lFoot
			{
				OFFSET 0.000000 -19.300380 -1.231939
				CHANNELS 3 Xrotation Yrotation Zrotation 
				End Site
				{
					OFFSET 0.000000 -2.463878 4.653993
				}
			}
		}
	}
	JOINT rThigh
	{
		OFFSET -5.338403 -1.642589 1.368821
		CHANNELS 3 Xrotation Zrotation Yrotation 
		JOINT rShin
		{
			OFFSET 2.053232 -20.121670 0.000000
			CHANNELS 3 Xrotation Zrotation Yrotation 
			JOINT rFoot
			{
				OFFSET 0.000000 -19.300380 -1.231939
				CHANNELS 3 Xrotation Yrotation Zrotation 
				End Site
				{
					OFFSET 0.000000 -2.463878 4.653993
				}
			}
		}
	}
}
MOTION
Frames: 6
Frame Time: 0.033264
0.000000 43.528500 0.000000 0.000000 0.000000 0.000000 0.000000 0.000000 0.000000 0.000000 0.000000 0.000000 0.000000 0.000000 0.000000 0.000000 0.000000 0.000000 0.000000 0.000000 0.000000 0.000000 0.000000 0.000000 0.000000 0.000000 0.000000 0.000000 0.000000 0.000000 0.000000 0.000000 0.000000 0.000000 0.000000 0.000000 0.000000 0.000000 0.000000 0.000000 0.000000 0.000000 0.000000 0.000000 0.000000 0.000000 0.000000 0.000000 0.000000 0.000000 0.000000 0.000000 0.000000 0.000000 0.000000 0.000000 0.000000 0.000000 0.000000 0.000000 
-0.123152 44.606842 9.717096 28.001480 0.000000 -180.000000 10.427078 -1.574629 -0.928619 8.715494 -1.485038 -0.556872 0.000000 0.000000 0.000000 0.000000 0.000000 0.000000 -27.463881 -19.278557 -19.877848 -1.977194 -20.743248 -23.234859 -35.992908 -18.730499 -6.087021 -52.441143 6.634820 -7.266192 8.543454 25.450699 -2.416202 33.801037 14.597745 -7.348051 2.579283 18.004889 7.056963 52.954231 9.550834 3.874251 -110.620712 68.449570 0.362172 142.464661 -19.114733 -48.642380 30.356886 15.887657 13.935505 -152.601257 -10.130462 -0.085466 120.295235 -36.979343 -30.428528 -7.124622 25.389519 8.666512 
-0.095117 44.394577 9.731113 28.445021 0.000000 -180.000000 10.427078 -1.574629 -0.928619 9.712035 -1.485138 -0.557014 -0.196324 0.138939 0.220697 -0.223430 0.052309 0.019432 -28.315546 -18.128855 -20.612595 -1.907183 -20.372145 -23.281311 -35.174156 -18.378450 -5.833208 -53.039600 6.229150 -7.514724 8.272841 23.743689 -3.052892 34.549664 14.969304 -7.178357 2.960106 19.856615 6.933088 51.943806 9.514533 3.082237 -111.513947 68.255989 -0.358186 142.464661 -19.114733 -48.642384 30.908438 16.396914 13.508321 -152.380066 -9.950253 -0.202462 119.868347 -37.047810 -30.178562 -6.414749 25.381712 8.339245 
-0.067083 44.182316 9.745131 28.889330 0.000000 -180.000000 10.427079 -1.574629 -0.928619 10.709789 -1.485235 -0.557158 -0.392227 0.278713 0.441046 -0.447008 0.104732 0.038675 -29.148540 -16.965910 -21.326620 -1.837647 -20.000923 -23.327173 -34.357983 -18.022684 -5.585006 -53.636230 5.820651 -7.758962 7.983856 22.031994 -3.693135 35.301334 15.338974 -7.003201 3.351690 21.715731 6.793790 50.932404 9.464375 2.289751 -112.393173 68.058266 -1.064414 142.464661 -19.114733 -48.642380 31.465815 16.902555 13.074573 -152.159302 -9.769579 -0.318700 119.440613 -37.114773 -29.927679 -5.704633 25.370224 8.011968 
-0.039048 43.970051 9.759148 29.333733 0.000000 -180.000000 10.427079 -1.574629 -0.928619 11.708609 -1.485330 -0.557304 -0.587705 0.419319 0.661045 -0.670733 0.157268 0.057727 -29.963337 -15.790517 -22.020353 -1.768577 -19.629593 -23.372465 -33.544430 -17.663315 -5.342457 -54.231049 5.409409 -7.998884 7.676598 20.316765 -4.337708 36.056065 15.706656 -6.822576 3.755131 23.581160 6.638104 49.920456 9.400326 1.497235 -113.258514 67.856552 -1.756575 142.464661 -19.114735 -48.642384 32.029079 17.404438 12.634217 -151.939056 -9.588452 -0.434179 119.012085 -37.180248 -29.675932 -4.994366 25.355072 7.684764 
-0.011014 43.757786 9.773166 29.778208 0.000000 -180.000000 10.427077 -1.574629 -0.928619 12.708344 -1.485423 -0.557452 -0.782752 0.560752 0.880687 -0.894603 0.209917 0.076587 -30.760424 -14.603465 -22.694221 -1.699967 -19.258163 -23.417171 -32.733555 -17.300472 -5.105604 -54.824024 4.995503 -8.234465 7.351122 18.599174 -4.987364 36.813839 16.072231 -6.636487 4.171630 25.451773 6.464939 48.908413 9.322379 0.705139 -114.109947 67.650902 -2.434733 142.464661 -19.114731 -48.642376 32.598278 17.902424 12.187227 -151.719254 -9.406874 -0.548899 118.582794 -37.244232 -29.423332 -4.284040 25.336246 7.357719 
